<svg height="50px" viewBox="-67 0 416 416.3" width="50px" xmlns="http://www.w3.org/2000/svg"><path d="m236.449219 0h-140.597657c-25.203124 0-45.703124 20.699219-45.703124 46.199219v65.101562c0 3.863281 3.136718 7 7 7 3.867187 0 7-3.136719 7-7v-65.101562c0-17.699219 14.203124-32.097657 31.601562-32.097657h140.699219c17.402343 0 31.601562 14.398438 31.601562 32.097657v324c0 17.699219-14.199219 32.101562-31.601562 32.101562h-140.597657c-17.402343 0-31.601562-14.402343-31.601562-32.101562v-64.597657c0-3.867187-3.132812-7-7-7s-7 3.132813-7 7v64.597657c0 25.402343 20.5 46.101562 45.601562 46.101562h140.699219c25.199219 0 45.597657-20.699219 45.597657-46.101562v-324c0-25.5-20.5-46.199219-45.699219-46.199219zm0 0"/><path d="m123.851562 247.398438c-2.480468 2.964843-2.125 7.375.796876 9.902343 1.253906 1.078125 2.847656 1.679688 4.5 1.699219 2.0625.042969 4.023437-.882812 5.300781-2.5l37-43.699219c.199219-.300781.5-.601562.699219-.902343l.101562-.097657c.1875-.324219.355469-.65625.5-1 0-.101562 0-.101562.101562-.199219.097657-.300781.199219-.703124.296876-1v-.203124c.085937-.359376.117187-.730469.101562-1.097657.015625-.371093-.015625-.742187-.101562-1.101562v-.199219c-.097657-.398438-.199219-.699219-.296876-1 0-.101562 0-.101562-.101562-.199219-.125-.351562-.292969-.6875-.5-1 0-.054687-.042969-.101562-.101562-.101562-.199219-.324219-.433594-.625-.699219-.898438l-37-43.699219c-2.511719-2.957031-6.945313-3.316406-9.898438-.800781-2.957031 2.511719-3.3125 6.945313-.800781 9.898438l27.398438 32h-144c-3.863282 0-7 3.136719-7 7 0 3.867187 3.136718 7 7 7h144zm0 0"/></svg>